<?xml version="1.0" ?><svg viewBox="0 0 64 64" xmlns="http://www.w3.org/2000/svg"><title/><g id="Sunrise"><path d="M32,16a1,1,0,0,1-1-1V6a1,1,0,0,1,2,0v9A1,1,0,0,1,32,16Z" style="fill:#ffe78f"/><path d="M17.8574,21.8574a.9967.9967,0,0,1-.707-.2929l-4.2422-4.2422a1,1,0,1,1,1.4141-1.4141L18.5645,20.15a1,1,0,0,1-.7071,1.707Z" style="fill:#ffe78f"/><path d="M12,36H3a1,1,0,0,1,0-2h9a1,1,0,0,1,0,2Z" style="fill:#ffe78f"/><path d="M61,36H52a1,1,0,0,1,0-2h9a1,1,0,0,1,0,2Z" style="fill:#ffe78f"/><path d="M46.1426,21.8574a1,1,0,0,1-.7071-1.707l4.2422-4.2422a1,1,0,0,1,1.4141,1.4141L46.85,21.5645A.9967.9967,0,0,1,46.1426,21.8574Z" style="fill:#ffe78f"/><path d="M54,45H43.1471A14.8636,14.8636,0,0,0,47,35a15,15,0,0,0-30,0,14.8636,14.8636,0,0,0,3.8529,10H10a1,1,0,0,0,0,2H54a1,1,0,0,0,0-2Z" style="fill:#ffd36b"/><path d="M46,57H18a1,1,0,0,0,0,2H46a1,1,0,0,0,0-2Z" style="fill:#ffd36b"/><path d="M50,51H14a1,1,0,0,0,0,2H50a1,1,0,0,0,0-2Z" style="fill:#ffd36b"/></g></svg>